# xmcd
#
# Track frame offsets:
#   150
#   10222
#   23700
#   36202
#   48585
#   62017
#   69562
#   85827
#   94812
#   108507
#   124800
#   136810
#   141805
#   158527
#   173737
#   187237
#   210312
#   224127
#   248852
#   264555
#   273860
#   285372
#
# Disc length: 4073 seconds
#
# Revision: 0
# Processed by: cddbd v1.5.1PL0 Copyright (c) Steve Scherf et al.
# Submitted via: uFREEDB ActiveX Control 1.5
#
DISCID=3f0fe716
DTITLE=Grupo Semente - Semente
DYEAR=1900
DGENRE=Gospel and Religious
TTITLE0=Plantando a semente
TTITLE1=Louvemos a uma só voz
TTITLE2=Nem um momento só
TTITLE3=Cantarei para sempre
TTITLE4=Trigo e joio
TTITLE5=Sem murmurar
TTITLE6=Caminho, verdade e vida
TTITLE7=Apocalipse 15: 3-4
TTITLE8=Revelações de Deus
TTITLE9=Resposta certa
TTITLE10=Sorrisos
TTITLE11=Bem maior
TTITLE12=Alegria em Jesus
TTITLE13=Fruto da semente
TTITLE14=Vem comigo
TTITLE15=Palavra
TTITLE16=Nada como antes
TTITLE17=Ele é o teu louvor
TTITLE18=Cristo voltará logo
TTITLE19=Para sempre e mais
TTITLE20=Antes
TTITLE21=Idéia melhor
EXTD=
EXTT0=
EXTT1=
EXTT2=
EXTT3=
EXTT4=
EXTT5=
EXTT6=
EXTT7=
EXTT8=
EXTT9=
EXTT10=
EXTT11=
EXTT12=
EXTT13=
EXTT14=
EXTT15=
EXTT16=
EXTT17=
EXTT18=
EXTT19=
EXTT20=
EXTT21=
PLAYORDER=
